<?xml version="1.0" encoding="UTF-8"?>
<!DOCTYPE svg PUBLIC "-//W3C//DTD SVG 1.1//EN" "http://www.w3.org/Graphics/SVG/1.1/DTD/svg11.dtd">
<svg xmlns="http://www.w3.org/2000/svg" version="1.1" width="182px" height="182px" style="shape-rendering:geometricPrecision; text-rendering:geometricPrecision; image-rendering:optimizeQuality; fill-rule:evenodd; clip-rule:evenodd" xmlns:xlink="http://www.w3.org/1999/xlink">
<g><path style="opacity:0.951" fill="#10cab6" d="M 108.5,36.5 C 141.89,34.7639 162.39,50.0972 170,82.5C 172.407,106.852 163.24,125.352 142.5,138C 112.035,150.763 87.535,143.596 69,116.5C 59.1929,95.5189 60.8595,75.5189 74,56.5C 83.2579,45.7933 94.7579,39.1266 108.5,36.5 Z M 113.5,55.5 C 135.749,56.7485 148.416,68.4152 151.5,90.5C 147.943,114.777 133.943,125.943 109.5,124C 89.2136,117.613 80.3802,103.78 83,82.5C 87.7575,67.2349 97.9242,58.2349 113.5,55.5 Z"/></g>
<g><path style="opacity:0.96" fill="#24484e" d="M 9.5,37.5 C 15.8333,37.5 22.1667,37.5 28.5,37.5C 28.5,73.1667 28.5,108.833 28.5,144.5C 22.1667,144.5 15.8333,144.5 9.5,144.5C 9.5,108.833 9.5,73.1667 9.5,37.5 Z"/></g>
</svg>
